<?xml version="1.0" encoding="UTF-8" standalone="no"?>
<!-- Created with Inkscape (http://www.inkscape.org/) -->
<svg
   xmlns:dc="http://purl.org/dc/elements/1.1/"
   xmlns:cc="http://web.resource.org/cc/"
   xmlns:rdf="http://www.w3.org/1999/02/22-rdf-syntax-ns#"
   xmlns:svg="http://www.w3.org/2000/svg"
   xmlns="http://www.w3.org/2000/svg"
   xmlns:xlink="http://www.w3.org/1999/xlink"
   xmlns:sodipodi="http://sodipodi.sourceforge.net/DTD/sodipodi-0.dtd"
   xmlns:inkscape="http://www.inkscape.org/namespaces/inkscape"
   width="770.26135"
   height="220"
   id="svg2"
   sodipodi:version="0.32"
   inkscape:version="0.45.1"
   sodipodi:docname="logotype.svg"
   sodipodi:docbase="/Users/peter/Pictures/Code7"
   inkscape:output_extension="org.inkscape.output.svg.inkscape"
   version="1.0">
  <defs
     id="defs4">
    <linearGradient
       id="linearGradient3277">
      <stop
         id="stop3279"
         offset="0"
         style="stop-color:#cff664;stop-opacity:1;" />
      <stop
         id="stop3281"
         offset="1"
         style="stop-color:#3c6d21;stop-opacity:1;" />
    </linearGradient>
    <linearGradient
       id="linearGradient3196">
      <stop
         style="stop-color:#cff65a;stop-opacity:1;"
         offset="0"
         id="stop3198" />
      <stop
         style="stop-color:#3c6d21;stop-opacity:1;"
         offset="1"
         id="stop3200" />
    </linearGradient>
    <linearGradient
       inkscape:collect="always"
       xlink:href="#linearGradient3196"
       id="linearGradient3222"
       gradientUnits="userSpaceOnUse"
       gradientTransform="translate(-138,154)"
       x1="481.78067"
       y1="432.31699"
       x2="463.7131"
       y2="468.58972" />
    <linearGradient
       inkscape:collect="always"
       xlink:href="#linearGradient3196"
       id="linearGradient3228"
       gradientUnits="userSpaceOnUse"
       gradientTransform="matrix(0.3457102,-1.4834051,1.5869286,0.3231578,-566.68921,1134.9151)"
       x1="481.78067"
       y1="432.31699"
       x2="463.7131"
       y2="468.58972" />
    <linearGradient
       inkscape:collect="always"
       xlink:href="#linearGradient3196"
       id="linearGradient2750"
       gradientUnits="userSpaceOnUse"
       gradientTransform="translate(-138,154)"
       x1="481.78067"
       y1="432.31699"
       x2="463.7131"
       y2="468.58972" />
    <linearGradient
       inkscape:collect="always"
       xlink:href="#linearGradient3277"
       id="linearGradient2752"
       gradientUnits="userSpaceOnUse"
       gradientTransform="matrix(0.9905521,0.2864704,0.2658293,-0.9172973,-161.01338,849.86721)"
       x1="481.78067"
       y1="432.31699"
       x2="463.7131"
       y2="468.58972" />
    <linearGradient
       inkscape:collect="always"
       xlink:href="#linearGradient3196"
       id="linearGradient3352"
       gradientUnits="userSpaceOnUse"
       gradientTransform="translate(-138,154)"
       x1="481.78067"
       y1="432.31699"
       x2="463.7131"
       y2="468.58972" />
    <linearGradient
       inkscape:collect="always"
       xlink:href="#linearGradient3277"
       id="linearGradient3354"
       gradientUnits="userSpaceOnUse"
       gradientTransform="matrix(0.9905521,0.2864704,0.2658293,-0.9172973,-161.01338,849.86721)"
       x1="481.78067"
       y1="432.31699"
       x2="463.7131"
       y2="468.58972" />
  </defs>
  <sodipodi:namedview
     id="base"
     pagecolor="#ffffff"
     bordercolor="#666666"
     borderopacity="1.0"
     gridtolerance="10000"
     guidetolerance="10"
     objecttolerance="10"
     inkscape:pageopacity="0.0"
     inkscape:pageshadow="2"
     inkscape:zoom="1"
     inkscape:cx="278.44724"
     inkscape:cy="124.5371"
     inkscape:document-units="px"
     inkscape:current-layer="layer1"
     inkscape:window-width="1535"
     inkscape:window-height="1089"
     inkscape:window-x="1830"
     inkscape:window-y="90"
     width="770.26135px"
     height="220px" />
  <metadata
     id="metadata7">
    <rdf:RDF>
      <cc:Work
         rdf:about="">
        <dc:format>image/svg+xml</dc:format>
        <dc:type
           rdf:resource="http://purl.org/dc/dcmitype/StillImage" />
      </cc:Work>
    </rdf:RDF>
  </metadata>
  <g
     inkscape:label="Layer 1"
     inkscape:groupmode="layer"
     id="layer1"
     style="display:inline"
     transform="translate(-4.5060717,-4.6678624)">
    <g
       id="g2743"
       transform="matrix(2.5999388,0,0,2.5999388,-965.18679,-1389.6353)">
      <g
         transform="matrix(-0.6455775,0.2421546,-0.234355,-0.624784,749.74453,860.67331)"
         id="g3218">
        <path
           style="fill:url(#linearGradient3352);fill-opacity:1;fill-rule:evenodd;stroke:#5d8c2d;stroke-width:1px;stroke-linecap:butt;stroke-linejoin:miter;stroke-opacity:1"
           d="M 304.1153,627.51729 C 309.94745,628.20637 316.31978,632.27265 337.80986,623.55323 C 325.70873,619.38023 349.27886,622.77647 361.66656,598.49657 C 348.78335,599.9831 368.10817,602.46064 371.57673,570.74812 C 350.26987,567.27956 346.55916,573.64813 341.60329,577.953 C 341.74003,577.84773 341.61787,577.36495 342.27084,574.5213 C 339.43616,575.23974 333.1728,578.91186 326.95182,584.11281 C 320.73084,589.31377 314.55225,596.04356 311.88711,602.87736 C 310.80069,600.04677 311.48186,600.16027 309.96349,597.45921 C 302.71784,618.48542 303.909,623.06069 304.1153,627.51729 z "
           id="path2221"
           sodipodi:nodetypes="ccccccsccc" />
        <path
           style="opacity:0.85380117;fill:#7cb13c;fill-opacity:1;fill-rule:evenodd;stroke:#5d8c2d;stroke-width:1px;stroke-linecap:butt;stroke-linejoin:miter;stroke-opacity:1"
           d="M 304.00479,627.10795 C 343.12639,592.05953 326.66381,605.87149 371.46622,570.33878 C 350.15936,566.87022 346.44865,573.23879 341.49278,577.54366 C 341.62952,577.43839 341.50736,576.95561 342.16033,574.11196 C 339.32565,574.8304 333.06229,578.50252 326.84131,583.70347 C 320.62033,588.90443 314.44174,595.63422 311.7766,602.46802 C 310.69018,599.63743 311.37135,599.75093 309.85298,597.04987 C 302.60733,618.07608 303.79849,622.65135 304.00479,627.10795 z "
           id="path2223"
           sodipodi:nodetypes="ccccsccc" />
      </g>
      <path
         sodipodi:nodetypes="ccccccsccc"
         id="path3212"
         d="M 402.79962,542.16401 C 408.75984,543.20266 416.15291,541.29815 435.12207,555.45272 C 422.02597,555.81399 446.27624,559.45077 452.09259,585.27137 C 439.72626,580.21712 459.5271,583.48047 454.53279,613.56391 C 432.50518,610.64183 430.52249,603.73695 426.75779,598.3684 C 426.86525,598.50413 426.61593,598.91199 426.5068,601.70751 C 423.88988,600.23644 418.66185,595.07375 413.88221,588.52079 C 409.10257,581.96785 404.77132,574.02465 403.948,566.99254 C 402.11939,569.27781 402.82429,569.36883 400.60225,571.41154 C 399.01443,550.04859 401.41058,546.19293 402.79962,542.16401 z "
         style="fill:url(#linearGradient3354);fill-opacity:1;fill-rule:evenodd;stroke:#5d8c2d;stroke-width:0.99236238px;stroke-linecap:butt;stroke-linejoin:miter;stroke-opacity:1" />
      <path
         sodipodi:nodetypes="ccccsccc"
         id="path3214"
         d="M 402.58134,542.50783 C 432.01643,585.86484 419.38102,568.47912 454.3145,613.90774 C 432.2869,610.98565 430.3042,604.08078 426.53952,598.71223 C 426.64698,598.84796 426.39763,599.25581 426.28852,602.05135 C 423.67159,600.58028 418.44357,595.41757 413.66393,588.86463 C 408.88429,582.31168 404.55304,574.36848 403.72971,567.33637 C 401.9011,569.62163 402.60601,569.71265 400.38397,571.75538 C 398.79615,550.39242 401.1923,546.53676 402.58134,542.50783 z "
         style="opacity:0.85380117;fill:#7cb13c;fill-opacity:1;fill-rule:evenodd;stroke:#5d8c2d;stroke-width:0.99236238px;stroke-linecap:butt;stroke-linejoin:miter;stroke-opacity:1" />
    </g>
    <path
       style="font-size:103.99755096px;font-style:normal;font-weight:normal;fill:#000000;fill-opacity:1;stroke:none;stroke-width:1px;stroke-linecap:butt;stroke-linejoin:miter;stroke-opacity:1;display:inline;font-family:Yanone Kaffeesatz Rg"
       d="M 254.73722,80.271715 C 254.73722,78.399761 250.26532,76.423805 246.10542,76.423805 C 237.47364,76.423805 227.59386,80.167742 227.59386,105.12713 C 227.59386,128.42256 232.27376,131.54251 245.06545,131.54251 C 249.64134,131.54251 254.32123,129.35856 254.32123,126.75862 C 254.32123,125.19866 254.00924,122.39072 253.38525,119.79078 C 251.72129,120.62276 248.28937,121.24675 246.31342,121.24675 C 241.21754,121.24675 239.76157,119.06279 239.76157,104.91913 C 239.76157,89.111522 243.40149,86.615565 247.1454,86.615565 C 249.32935,86.615565 252.03329,87.239551 253.69725,87.967533 C 254.42523,85.471595 254.73722,82.039671 254.73722,80.271715 M 255.77486,103.87916 C 255.77486,127.17459 260.97475,131.8545 272.20647,131.8545 C 283.4382,131.8545 289.26207,123.53468 289.26207,103.46317 C 289.26207,82.455684 284.16618,76.527803 273.03845,76.527803 C 262.01472,76.527803 255.77486,85.055621 255.77486,103.87916 M 268.56656,103.77516 C 268.56656,89.007524 270.33452,86.511568 272.62246,86.511568 C 275.63839,86.511568 276.47037,88.799529 276.47037,103.77516 C 276.47037,119.79077 274.49442,122.18273 272.51847,122.18273 C 269.91853,122.18273 268.56656,119.99876 268.56656,103.77516 M 313.552,86.927558 C 312.92801,86.511568 312.09603,86.40757 311.36805,86.40757 C 309.2881,86.40757 306.27217,87.759555 306.27217,104.91913 C 306.27217,119.06279 307.41615,121.24675 310.12008,121.24675 C 311.47205,121.24675 312.61602,121.03875 313.552,120.20677 L 313.552,86.927558 M 313.552,58.640224 C 313.552,53.544349 315.52796,53.544344 325.19972,53.544344 L 325.19972,128.42258 C 321.45582,130.60653 316.77592,131.54251 310.01608,131.54251 C 299.82433,131.54251 293.16848,128.42256 293.16848,106.3751 C 293.16848,85.055623 299.30434,76.423805 307.41614,76.423805 C 310.22407,76.423805 312.30403,77.255787 313.552,78.295761 L 313.552,58.640224 M 349.35153,76.423805 C 339.57577,76.423805 331.04796,80.479736 331.04796,106.4791 C 331.04796,127.69458 337.70382,131.54251 347.16758,131.54251 C 355.27938,131.54251 361.93524,129.25456 361.93524,127.5906 C 361.93524,124.26268 361.62324,119.37479 360.99926,117.29484 C 357.35935,119.0628 353.71942,120.20677 348.72755,120.20677 C 344.67165,120.20677 343.42367,118.6468 343.11168,110.22301 C 348.31155,110.11901 356.11138,109.70302 361.20725,108.66305 C 362.24723,104.60715 362.66322,98.887271 362.66322,93.895394 C 362.66322,81.83169 357.67133,76.423805 349.35153,76.423805 M 347.79157,86.511568 C 350.39151,86.511568 351.32749,88.071538 351.32749,94.727374 C 351.32749,96.391333 351.22349,98.887277 350.8075,100.13525 C 349.24754,100.86323 346.02361,101.07122 343.11168,101.07122 C 343.42367,91.50346 344.56765,86.511568 347.79157,86.511568 M 405.89533,67.584013 C 392.58365,97.639276 384.67983,120.62278 384.57583,139.55032 C 374.80007,139.55032 372.61611,139.03033 372.61611,136.32639 C 372.61611,120.31079 383.32786,90.359464 390.71168,77.359783 C 384.67983,77.775773 379.06395,77.983768 371.57613,77.983768 C 369.0802,77.983768 368.45621,72.575891 368.45621,67.584013 L 405.89533,67.584013 M 442.31397,77.983768 C 435.45014,77.983768 433.68217,77.983772 433.68217,81.831678 L 433.68217,129.98254 C 442.20996,129.98254 442.31397,129.98254 442.31397,128.21459 L 442.31397,77.983768 M 433.57817,60.09619 C 433.47418,64.98407 435.13814,66.544038 437.84207,66.648035 C 440.962,66.648035 442.52196,64.15209 442.62596,59.888195 C 442.62596,55.520302 441.58598,53.856337 438.36206,53.856337 C 435.03414,53.856337 433.57817,56.352282 433.57817,60.09619 M 451.859,79.855724 C 455.9149,77.98377 463.40273,76.423805 469.01859,76.423805 C 481.60228,76.423805 482.95427,81.207707 482.95427,95.559355 L 482.95427,128.21459 C 482.95427,129.98254 483.05825,129.98254 474.21847,129.98254 L 474.21847,95.143364 C 474.21847,86.927566 473.59448,83.807631 468.08262,83.807631 C 465.79467,83.807631 462.57074,84.327621 460.2828,85.783585 L 460.2828,128.21459 C 460.2828,129.98254 460.49079,129.98254 451.859,129.98254 L 451.859,79.855724 M 496.03845,115.21489 C 496.03845,124.57466 496.03846,131.6465 505.91822,131.6465 C 509.97412,131.6465 514.86201,130.81452 514.86201,128.31858 C 514.86201,126.23863 514.55001,123.95068 514.23802,122.80671 C 512.05407,123.74269 511.11809,124.36668 508.20616,124.36668 C 504.46225,124.36668 504.46225,120.62276 504.46225,116.15087 L 504.46225,85.263597 L 513.40604,85.263597 C 515.07,85.263597 515.07,84.535608 515.07,77.983768 L 504.46225,77.983768 L 504.46225,59.264209 C 497.59842,59.264209 496.03845,59.264212 496.03845,62.176141 L 496.03845,77.983768 L 490.73457,77.983768 C 488.96662,77.983768 488.86262,78.815755 488.86262,85.263597 L 496.03845,85.263597 L 496.03845,115.21489 M 536.49724,76.423805 C 527.24147,76.423805 518.08968,79.647756 518.08968,106.68709 C 518.08968,127.90257 525.05752,131.54251 534.72929,131.54251 C 542.52909,131.54251 549.08095,129.04656 549.08095,127.5906 C 549.08095,125.30266 548.87295,121.66274 548.35296,120.10278 C 544.81705,122.07873 540.65714,123.3267 535.66526,123.3267 C 530.0494,123.3267 527.13746,121.45473 526.82547,108.87104 C 531.81735,108.87104 541.38514,108.66304 548.56096,107.20708 C 549.39294,103.46317 549.70493,98.159289 549.70493,93.479404 C 549.70493,82.351677 545.23303,76.423805 536.49724,76.423805 M 535.56127,83.807631 C 540.03316,83.807631 541.38513,86.927565 541.48913,94.415382 C 541.48913,96.391333 541.38513,98.991276 540.96914,100.86323 C 537.32923,101.9032 530.88137,102.1112 526.82547,102.0072 C 527.44946,87.551558 531.29737,83.807631 535.56127,83.807631 M 557.12288,81.103695 C 561.90677,77.671779 566.17067,76.423805 571.26655,76.423805 C 576.57042,76.423805 578.54638,77.671778 578.54638,80.271715 C 578.54638,81.727679 578.33838,84.015628 577.6104,85.783585 C 576.05044,84.951605 574.59447,84.535614 572.61852,84.535614 C 570.33057,84.535614 567.73063,85.367597 565.75468,87.343548 L 565.65068,128.21459 C 565.65068,129.98254 565.75467,129.98254 557.12288,129.98254 L 557.12288,81.103695 M 582.98412,81.623683 C 582.98412,80.479711 583.19212,79.439734 583.9201,78.919746 C 585.48006,77.775775 592.44791,76.423805 602.11967,76.423805 C 608.87951,76.423805 612.83142,79.751736 612.83142,89.111506 L 612.83142,95.143364 C 612.83142,113.34292 612.20744,128.11059 612.20744,128.11059 C 609.3995,129.87854 604.51161,131.54251 597.75178,131.54251 C 590.15996,131.6465 582.88013,131.0225 582.88013,115.21489 C 582.88013,100.75925 589.74397,98.159293 596.39981,98.159293 C 598.99974,98.159293 602.22367,98.471287 604.30362,99.511262 C 604.30362,99.511262 604.30362,93.687396 604.30362,90.775467 C 604.30362,85.887587 602.01567,84.639612 598.79175,84.639612 C 594.11187,84.639612 587.35202,85.575591 584.1281,87.031555 C 583.08812,85.263599 582.98412,82.351665 582.98412,81.623683 M 604.30362,105.43912 C 602.95165,104.71114 600.8717,104.50314 599.41574,104.50314 C 595.25584,104.50314 591.71992,105.95912 591.71992,115.11089 C 591.71992,124.05467 594.31986,124.47067 598.37576,124.47067 C 600.45571,124.47067 603.05565,123.84669 603.99163,122.80671 C 603.99163,122.80671 604.30362,112.92694 604.30362,105.43912 M 647.20425,80.063719 C 647.20425,78.503758 642.83635,76.423805 638.57245,76.423805 C 629.94066,76.423805 619.85289,79.751752 619.85289,105.12713 C 619.85289,128.94254 625.46877,131.6465 637.11648,131.6465 C 642.21236,131.6465 646.99625,128.94257 646.99625,126.86262 C 646.99625,125.61465 646.68426,123.53469 646.16427,121.66274 C 644.18832,122.91071 640.86039,124.05468 638.05246,124.05468 C 631.60462,124.05468 628.69268,121.87072 628.69268,105.12713 C 628.69268,86.615584 634.10056,83.911629 639.30043,83.911629 C 642.21236,83.911629 644.50031,84.847608 646.26827,85.783585 C 646.89225,84.015628 647.20425,81.415686 647.20425,80.063719 M 658.17599,115.21489 C 658.17599,124.57466 658.176,131.6465 668.05576,131.6465 C 672.11166,131.6465 676.99955,130.81452 676.99955,128.31858 C 676.99955,126.23863 676.68756,123.95068 676.37556,122.80671 C 674.19162,123.74269 673.25563,124.36668 670.3437,124.36668 C 666.5998,124.36668 666.59979,120.62276 666.59979,116.15087 L 666.59979,85.263597 L 675.54358,85.263597 C 677.20754,85.263597 677.20754,84.535608 677.20754,77.983768 L 666.59979,77.983768 L 666.59979,59.264209 C 659.73596,59.264209 658.17599,59.264212 658.17599,62.176141 L 658.17599,77.983768 L 652.87212,77.983768 C 651.10416,77.983768 651.00016,78.815755 651.00016,85.263597 L 658.17599,85.263597 L 658.17599,115.21489 M 692.80881,77.983768 C 685.94498,77.983768 684.17701,77.983772 684.17701,81.831678 L 684.17701,129.98254 C 692.70481,129.98254 692.80881,129.98254 692.80881,128.21459 L 692.80881,77.983768 M 684.07302,60.09619 C 683.96902,64.98407 685.63298,66.544038 688.33692,66.648035 C 691.45684,66.648035 693.01681,64.15209 693.1208,59.888195 C 693.1208,55.520302 692.08083,53.856337 688.8569,53.856337 C 685.52899,53.856337 684.07302,56.352282 684.07302,60.09619 M 699.54588,80.583707 C 699.02589,77.983771 699.33789,77.983768 708.59366,77.983768 L 711.92158,94.623377 C 714.10553,105.43911 715.97749,119.58279 715.97749,119.58279 L 716.18548,119.58279 C 716.18548,119.58279 717.95344,105.43911 720.13739,94.519379 L 722.84133,79.855724 C 723.15332,77.98377 723.25733,77.983768 731.78512,77.983768 L 719.8254,130.50253 C 718.26544,130.81452 715.2495,130.91852 713.89754,130.91852 C 711.92159,130.91852 710.88161,128.73457 710.15363,125.71864 L 699.54588,80.583707 M 752.56002,76.423805 C 743.30425,76.423805 734.15245,79.647756 734.15245,106.68709 C 734.15245,127.90257 741.1203,131.54251 750.79206,131.54251 C 758.59187,131.54251 765.14372,129.04656 765.14372,127.5906 C 765.14372,125.30266 764.93573,121.66274 764.41574,120.10278 C 760.87983,122.07873 756.71992,123.3267 751.72804,123.3267 C 746.11218,123.3267 743.20024,121.45473 742.88825,108.87104 C 747.88012,108.87104 757.44791,108.66304 764.62373,107.20708 C 765.45571,103.46317 765.76771,98.159289 765.76771,93.479404 C 765.76771,82.351677 761.2958,76.423805 752.56002,76.423805 M 751.62404,83.807631 C 756.09593,83.807631 757.4479,86.927565 757.5519,94.415382 C 757.5519,96.391333 757.4479,98.991276 757.03191,100.86323 C 753.392,101.9032 746.94415,102.1112 742.88825,102.0072 C 743.51223,87.551558 747.36015,83.807631 751.62404,83.807631"
       id="text3384" />
  </g>
  <g
     inkscape:groupmode="layer"
     id="layer2"
     inkscape:label="iMAGE"
     style="display:inline"
     transform="translate(-4.5060717,-4.6678624)" />
</svg>
